<svg xmlns="http://www.w3.org/2000/svg" width="24" height="24" fill="none" viewBox="0 0 24 24" id="emoji-chat">
  <path fill="#C8DBFF" d="M6 1.5C3.51472 1.5 1.5 3.51472 1.5 6V14C1.5 16.3163 3.25002 18.2238 5.5 18.4725L5.5 22C5.5 22.1844 5.60149 22.3538 5.76407 22.4408C5.92665 22.5278 6.12392 22.5183 6.27735 22.416L12.1514 18.5H18C20.4853 18.5 22.5 16.4853 22.5 14V6C22.5 3.51472 20.4853 1.5 18 1.5H6Z"></path>
  <path fill="#FAFAFA" fill-rule="evenodd" d="M22.1771 15.6771C22.3854 15.1588 22.5 14.5928 22.5 14V6C22.5 3.51472 20.4853 1.5 18 1.5H6C5.40721 1.5 4.8412 1.61462 4.32291 1.82291C4.11462 2.3412 4 2.90721 4 3.5V11.5C4 13.8163 5.75002 15.7238 8 15.9725L8 19.5C8 19.6844 8.10149 19.8538 8.26407 19.9408C8.42665 20.0278 8.62392 20.0183 8.77735 19.916L14.6514 16H20.5C21.0928 16 21.6588 15.8854 22.1771 15.6771Z" clip-rule="evenodd"></path>
  <path fill="#528BF8" fill-rule="evenodd" d="M6 2.5C4.067 2.5 2.5 4.067 2.5 6V14C2.5 15.933 4.067 17.5 6 17.5C6.27614 17.5 6.5 17.7239 6.5 18L6.5 21.0657L11.7226 17.584C11.8048 17.5292 11.9013 17.5 12 17.5H18C19.933 17.5 21.5 15.933 21.5 14V6C21.5 4.067 19.933 2.5 18 2.5H6ZM1.5 6C1.5 3.51472 3.51472 1.5 6 1.5H18C20.4853 1.5 22.5 3.51472 22.5 6V14C22.5 16.4853 20.4853 18.5 18 18.5H12.1514L6.27735 22.416C6.12392 22.5183 5.92665 22.5278 5.76407 22.4408C5.60149 22.3538 5.5 22.1844 5.5 22L5.5 18.4725C3.25002 18.2238 1.5 16.3163 1.5 14V6Z" clip-rule="evenodd"></path>
  <path fill="#C8DBFF" d="M12 4.5C8.96243 4.5 6.5 6.96243 6.5 10C6.5 13.0376 8.96243 15.5 12 15.5C15.0376 15.5 17.5 13.0376 17.5 10C17.5 6.96243 15.0376 4.5 12 4.5Z"></path>
  <path fill="#FAFAFA" fill-rule="evenodd" d="M16.759 12.759C17.2302 11.948 17.5 11.0055 17.5 10C17.5 6.96243 15.0376 4.5 12 4.5C10.9945 4.5 10.052 4.76982 9.24101 5.24101C8.76982 6.05202 8.5 6.9945 8.5 8C8.5 11.0376 10.9624 13.5 14 13.5C15.0055 13.5 15.948 13.2302 16.759 12.759Z" clip-rule="evenodd"></path>
  <path fill="#528BF8" fill-rule="evenodd" d="M12 5.5C9.51472 5.5 7.5 7.51472 7.5 10C7.5 12.4853 9.51472 14.5 12 14.5C14.4853 14.5 16.5 12.4853 16.5 10C16.5 7.51472 14.4853 5.5 12 5.5ZM6.5 10C6.5 6.96243 8.96243 4.5 12 4.5C15.0376 4.5 17.5 6.96243 17.5 10C17.5 13.0376 15.0376 15.5 12 15.5C8.96243 15.5 6.5 13.0376 6.5 10Z" clip-rule="evenodd"></path>
  <path fill="#528BF8" fill-rule="evenodd" d="M10 9.5C10.2761 9.5 10.5 9.72386 10.5 10C10.5 10.8284 11.1716 11.5 12 11.5C12.8284 11.5 13.5 10.8284 13.5 10C13.5 9.72386 13.7239 9.5 14 9.5C14.2761 9.5 14.5 9.72386 14.5 10C14.5 11.3807 13.3807 12.5 12 12.5C10.6193 12.5 9.5 11.3807 9.5 10C9.5 9.72386 9.72386 9.5 10 9.5Z" clip-rule="evenodd"></path>
</svg>
